<svg enable-background="new 0 0 31.979 18.272" viewBox="0 0 31.979 18.272" xmlns="http://www.w3.org/2000/svg"><g id="Layer_34"><g><g><path d="m30.402 6.864c-8.434-6.415-20.277-6.494-28.799-.196l-1.19-1.607c9.234-6.826 22.063-6.738 31.2.211z"/></g><g><path d="m15.974 18.272c-5.505 0-11.01-2.146-15.299-6.435l-.675-.748.671-.671c8.578-8.579 22.021-8.576 30.602.005l.707.707-.707.707c-4.29 4.289-9.794 6.435-15.299 6.435zm-13.147-7.147c7.549 6.849 18.737 6.85 26.289.005-7.552-6.844-18.739-6.847-26.289-.005z"/></g><g><path d="m16.008 14.129c-3.86 0-7-3.141-7-7 0-.402.034-.805.102-1.196l1.971.342c-.048.278-.073.566-.073.854 0 2.757 2.243 5 5 5s5-2.243 5-5c0-.261-.021-.523-.061-.781l1.977-.307c.056.358.084.725.084 1.088 0 3.86-3.14 7-7 7z"/></g></g></g><g id="Layer_1"/></svg>